# File created by Blade
# Date/Time:  Thu Sep 25 17:14:50 2014
# Frame Rate: 120.000 fps
#------------------------------------------------------
:FULLY-SPECIFIED
:DEGREES
576
root 2.583064 37.957192 3.766599 197.401226 37.785216 7.122057
Spine -19.757512 2.757678 9.270796
Head -93.549839 -4.757373 -1.659898
LeftShoulder -136.971188 -59.557121 197.550565
LeftArm -26.158694 2.979625 -42.364582
LeftForeArm 6.901100 -0.000000 53.127396
LeftHand -48.509686 -0.000000 92.951870
LeftHandThumb1 -26.253704 0.000000 33.147579
RightShoulder -94.030384 67.794067 -155.511285
RightArm -2.203168 -0.990116 48.649668
RightForeArm -34.766338 -0.000000 51.246233
RightHand -6.032993 -0.000000 -72.371262
RightHandThumb1 -24.326973 -0.000000 -32.862282
LeftUpLeg 18.897419 0.004859 29.702213
LeftLeg 4.225022 -0.000000 -0.000000
LeftFoot 40.614401 29.973336 -13.755783
LeftToeBase 18.206920 -0.000000 -0.000000
RightUpLeg -56.188160 -49.433678 -22.211591
RightLeg 2.791529 -0.000000 -0.000000
RightFoot 27.550492 -1.635652 -19.881919
RightToeBase 0.794624 -0.000000 -0.000000
577
root 2.200867 38.001499 3.901282 198.396769 38.691051 9.706081
Spine -19.278416 3.074064 10.571274
Head -93.574235 -4.809025 -1.345989
LeftShoulder -137.567385 -59.342652 198.725813
LeftArm -26.158157 3.748256 -42.152608
LeftForeArm 7.442027 -0.000000 52.506049
LeftHand -48.792171 -0.000000 92.035944
LeftHandThumb1 -26.253704 0.000000 33.147579
RightShoulder -93.599930 68.024301 -154.907481
RightArm -2.197415 -1.437718 48.691060
RightForeArm -33.788461 -0.000000 50.702317
RightHand -6.025263 -0.000000 -72.851915
RightHandThumb1 -24.326973 -0.000000 -32.862282
LeftUpLeg 18.960876 -0.220798 28.435820
LeftLeg 4.603173 -0.000000 -0.000000
LeftFoot 40.933157 29.970887 -13.936398
LeftToeBase 18.067354 -0.000000 -0.000000
RightUpLeg -58.078831 -49.153675 -21.037181
RightLeg 2.846450 -0.000000 -0.000000
RightFoot 26.916776 -2.350274 -20.172260
RightToeBase -0.973021 -0.000000 0.000000
578
root 1.818403 38.039017 4.040575 199.480861 39.483568 12.301656
Spine -18.849225 3.344922 11.816404
Head -93.629811 -4.770703 -1.128286
LeftShoulder -137.984403 -59.268806 199.702757
LeftArm -25.976961 4.461876 -41.963135
LeftForeArm 7.625804 0.000000 51.877852
LeftHand -48.823845 -0.000000 91.172580
LeftHandThumb1 -26.253704 0.000000 33.147579
RightShoulder -93.072101 68.261280 -154.211028
RightArm -2.196233 -1.783511 48.748624
RightForeArm -32.896551 0.000000 50.154568
RightHand -6.148701 -0.000000 -73.350189
RightHandThumb1 -24.326973 -0.000000 -32.862282
LeftUpLeg 18.875224 -0.318369 27.294233
LeftLeg 4.967443 -0.000000 -0.000000
LeftFoot 41.554077 29.812431 -13.475184
LeftToeBase 18.505100 -0.000000 -0.000000
RightUpLeg -59.966281 -48.995218 -19.839129
RightLeg 2.868236 -0.000000 -0.000000
RightFoot 26.418302 -3.027507 -20.318713
RightToeBase 0.345202 -0.000000 -0.000000
579
root 1.428550 38.071435 4.179751 200.515337 40.145470 14.863853
Spine -18.357703 3.493034 12.975380
Head -93.620193 -4.618801 -0.908274
LeftShoulder -138.300206 -59.205091 200.685761
LeftArm -25.818617 4.985610 -41.760440
LeftForeArm 8.143950 -0.000000 51.174296
LeftHand -49.201777 -0.000000 90.165419
LeftHandThumb1 -26.253704 0.000000 33.147579
RightShoulder -92.792756 68.473796 -153.781207
RightArm -2.251626 -1.994026 48.885122
RightForeArm -32.078305 -0.000000 49.454522
RightHand -6.154343 -0.000000 -74.083360
RightHandThumb1 -24.326973 -0.000000 -32.862282
LeftUpLeg 18.722724 -0.461323 26.245811
LeftLeg 5.345583 -0.000000 -0.000000
LeftFoot 41.863479 29.774384 -13.310538
LeftToeBase 18.405191 -0.000000 -0.000000
RightUpLeg -61.717237 -48.927490 -18.772463
RightLeg 2.906611 -0.000000 -0.000000
RightFoot 25.768227 -3.478579 -20.221367
RightToeBase 0.193530 -0.000000 -0.000000
580
root 1.026931 38.096673 4.321346 201.550734 40.676550 17.490384
Spine -17.787232 3.675366 14.126276
Head -93.617253 -4.537389 -0.609542
LeftShoulder -138.741490 -59.067297 201.828663
LeftArm -25.690981 5.432576 -41.588568
LeftForeArm 8.501224 -0.000000 50.445639
LeftHand -49.481684 0.000000 89.082219
LeftHandThumb1 -26.253704 0.000000 33.147579
RightShoulder -91.736490 68.696538 -152.500789
RightArm -2.031114 -1.868542 49.008055
RightForeArm -31.432393 0.000000 48.682059
RightHand -6.306793 -0.000000 -75.001567
RightHandThumb1 -24.326973 -0.000000 -32.862282
LeftUpLeg 18.561989 -0.573984 25.393364
LeftLeg 5.695175 -0.000000 -0.000000
LeftFoot 41.989506 29.718840 -13.383446
LeftToeBase 18.753919 -0.000000 -0.000000
RightUpLeg -63.244570 -48.854123 -17.889880
RightLeg 2.989667 -0.000000 -0.000000
RightFoot 24.982573 -4.004056 -19.949444
RightToeBase -0.303689 -0.000000 0.000000
581
root 0.613782 38.117844 4.461490 202.487187 41.121972 20.158488
Spine -17.020564 3.768667 15.286832
Head -93.665370 -4.435472 -0.214114
LeftShoulder -139.023263 -58.986153 202.910482
LeftArm -25.610149 5.812062 -41.353071
LeftForeArm 8.742739 -0.000000 49.771203
LeftHand -49.726374 -0.000000 87.973361
LeftHandThumb1 -26.253704 0.000000 33.147579
RightShoulder -91.144493 69.049652 -151.686858
RightArm -1.971437 -1.582709 48.999257
RightForeArm -31.101105 0.000000 48.056974
RightHand -6.527962 -0.000000 -75.762765
RightHandThumb1 -24.326973 -0.000000 -32.862282
LeftUpLeg 18.518455 -0.577960 24.714023
LeftLeg 5.937335 -0.000000 -0.000000
LeftFoot 42.224675 29.452448 -13.386000
LeftToeBase 18.757422 -0.000000 -0.000000
RightUpLeg -64.601184 -48.840355 -17.073745
RightLeg 3.104405 -0.000000 -0.000000
RightFoot 23.797327 -4.356776 -20.080777
RightToeBase -0.794198 -0.000000 0.000000
582
root 0.191315 38.128288 4.615100 203.409162 41.380451 22.757626
Spine -16.309195 3.745386 16.290761
Head -93.713889 -4.319459 0.366110
LeftShoulder -139.716480 -58.574994 204.571928
LeftArm -25.780156 6.387516 -41.229865
LeftForeArm 8.953287 -0.000000 49.113865
LeftHand -49.836433 -0.000000 86.675309
LeftHandThumb1 -26.253704 0.000000 33.147579
RightShoulder -90.518588 69.377734 -150.677570
RightArm -1.871659 -1.361800 48.941306
RightForeArm -30.587302 -0.000000 47.410148
RightHand -6.533777 -0.000000 -76.459941
RightHandThumb1 -24.326973 -0.000000 -32.862282
LeftUpLeg 18.325963 -0.468445 24.196877
LeftLeg 6.124759 -0.000000 -0.000000
LeftFoot 42.466412 29.067045 -13.507590
LeftToeBase 19.162155 -0.000000 -0.000000
RightUpLeg -65.645403 -48.801257 -16.726814
RightLeg 3.322839 -0.000000 -0.000000
RightFoot 22.593686 -5.170371 -20.568933
RightToeBase -1.410694 -0.000000 0.000000
583
root -0.236227 38.129185 4.768303 204.244128 41.494104 25.264774
Spine -15.559372 3.608034 17.245701
Head -93.796222 -4.225039 0.972792
LeftShoulder -140.262759 -58.114178 205.983602
LeftArm -25.837558 6.937595 -41.180157
LeftForeArm 8.985399 -0.000000 48.459824
LeftHand -49.568100 0.000000 85.132735
LeftHandThumb1 -26.253704 0.000000 33.147579
RightShoulder -90.340187 69.637178 -150.168462
RightArm -1.957239 -1.087552 48.935675
RightForeArm -30.200534 0.000000 46.860714
RightHand -6.522577 0.000000 -76.939495
RightHandThumb1 -24.326973 -0.000000 -32.862282
LeftUpLeg 18.096047 -0.315869 23.757404
LeftLeg 6.254322 -0.000000 -0.000000
LeftFoot 42.606619 28.552784 -13.710948
LeftToeBase 19.177030 -0.000000 -0.000000
RightUpLeg -66.661679 -48.956805 -16.347988
RightLeg 3.431465 -0.000000 -0.000000
RightFoot 21.330608 -5.973486 -20.763641
RightToeBase -1.941410 -0.000000 0.000000
